HIERARCHY
ROOT Hips
{
	OFFSET	0.00	0.00	0.00
	CHANNELS 6 Xposition Yposition Zposition Zrotation Xrotation Yrotation
	JOINT LeftUpLeg
	{
		OFFSET	 0.126116	-0.014019	-0.065224
		CHANNELS 3 Zrotation Xrotation Yrotation
		JOINT LeftLeg
		{
			OFFSET	 0.000000	 0.000000	 0.569914
			CHANNELS 3 Zrotation Xrotation Yrotation
			JOINT LeftFoot
			{
				OFFSET	 0.000000	 0.000000	 0.544423
				CHANNELS 3 Zrotation Xrotation Yrotation
				JOINT LeftToeBase
				{
					OFFSET	 0.000000	 0.000000	 0.207117
					CHANNELS 3 Zrotation Xrotation Yrotation
					End Site
					{
						OFFSET	 0.000000	 0.000000	 0.207117
					}
				}
			}
		}
	}
	JOINT RightUpLeg
	{
		OFFSET	-0.124023	-0.008373	-0.065224
		CHANNELS 3 Zrotation Xrotation Yrotation
		JOINT RightLeg
		{
			OFFSET	 0.000000	 0.000000	 0.570047
			CHANNELS 3 Zrotation Xrotation Yrotation
			JOINT RightFoot
			{
				OFFSET	 0.000000	 0.000000	 0.544354
				CHANNELS 3 Zrotation Xrotation Yrotation
				JOINT RightToeBase
				{
					OFFSET	 0.000000	 0.000000	 0.207540
					CHANNELS 3 Zrotation Xrotation Yrotation
					End Site
					{
						OFFSET	 0.000000	 0.000000	 0.207540
					}
				}
			}
		}
	}
	JOINT Spine
	{
		OFFSET	 0.000184	-0.007763	 0.117403
		CHANNELS 3 Zrotation Xrotation Yrotation
		JOINT Spine1
		{
			OFFSET	 0.000000	 0.000000	 0.137269
			CHANNELS 3 Zrotation Xrotation Yrotation
			JOINT Spine2
			{
				OFFSET	 0.000000	 0.000000	 0.156879
				CHANNELS 3 Zrotation Xrotation Yrotation
				JOINT LeftShoulder
				{
					OFFSET	 0.080501	-0.002496	 0.160144
					CHANNELS 3 Zrotation Xrotation Yrotation
					JOINT LeftArm
					{
						OFFSET	 0.000000	 0.000000	 0.164363
						CHANNELS 3 Zrotation Xrotation Yrotation
						JOINT LeftForeArm
						{
							OFFSET	 0.000000	 0.000000	 0.364576
							CHANNELS 3 Zrotation Xrotation Yrotation
							JOINT LeftHand
							{
								OFFSET	 0.000000	 0.000000	 0.360812
								CHANNELS 3 Zrotation Xrotation Yrotation
								JOINT LeftHandIndex1
								{
									OFFSET	 0.000000	 0.000000	 0.086006
									CHANNELS 3 Zrotation Xrotation Yrotation
									JOINT LeftHandIndex2
									{
										OFFSET	 0.000000	 0.000000	 0.047236
										CHANNELS 3 Zrotation Xrotation Yrotation
										JOINT LeftHandIndex3
										{
											OFFSET	-0.004284	-0.000551	 0.038166
											CHANNELS 3 Zrotation Xrotation Yrotation
											End Site
											{
												OFFSET	-0.004284	-0.000551	 0.038166
											}
										}
									}
								}
							}
						}
					}
				}
				JOINT Neck
				{
					OFFSET	 0.000000	 0.000000	 0.176489
					CHANNELS 3 Zrotation Xrotation Yrotation
					JOINT Head
					{
						OFFSET	 0.000000	-0.001747	 0.077940
						CHANNELS 3 Zrotation Xrotation Yrotation
						End Site
						{
							OFFSET	 0.000000	-0.001747	 0.077940
						}
					}
				}
				JOINT RightShoulder
				{
					OFFSET	-0.080363	 0.000306	 0.159706
					CHANNELS 3 Zrotation Xrotation Yrotation
					JOINT RightArm
					{
						OFFSET	 0.000000	 0.000000	 0.164196
						CHANNELS 3 Zrotation Xrotation Yrotation
						JOINT RightForeArm
						{
							OFFSET	 0.000000	 0.000000	 0.365611
							CHANNELS 3 Zrotation Xrotation Yrotation
							JOINT RightHand
							{
								OFFSET	 0.000000	 0.000000	 0.360648
								CHANNELS 3 Zrotation Xrotation Yrotation
								JOINT RightHandIndex1
								{
									OFFSET	 0.000000	 0.000000	 0.069977
									CHANNELS 3 Zrotation Xrotation Yrotation
									JOINT RightHandIndex2
									{
										OFFSET	 0.000000	 0.000000	 0.052305
										CHANNELS 3 Zrotation Xrotation Yrotation
										JOINT RightHandIndex3
										{
											OFFSET	 0.009002	-0.000782	 0.042196
											CHANNELS 3 Zrotation Xrotation Yrotation
											End Site
											{
												OFFSET	 0.009002	-0.000782	 0.042196
											}
										}
									}
								}
							}
						}
					}
				}
			}
		}
	}
}
MOTION
Frames:    7
Frame Time: 0.03333334
-0.081083	 6.679204	 1.254102	-94.180020	 2.226573	 1.582871	-47.627870	-10.653620	-178.017300	 18.389410	-41.223070	 6.186892	-92.168560	 74.455720	 68.969380	-2.209768	 46.262670	-0.458384	 26.364830	-8.997266	 178.113400	-7.527536	-43.135670	 0.384879	 47.591660	 83.506740	-31.317700	 2.012821	 54.707220	 0.776497	-10.156790	 4.513532	 1.458228	-15.789440	 12.230180	-10.796200	 3.095457	-28.798530	 7.521101	-91.229240	 83.958370	 178.242600	 84.217340	 60.468990	-80.006520	 0.795583	-18.028120	-47.675840	 26.325150	 4.373621	-11.164640	-11.392360	 9.680235	-24.973800	-5.213937	-0.202400	 3.566957	-1.378229	 35.397820	-2.634230	 0.343657	 5.019998	 0.230062	-4.078317	-15.655960	-11.365570	 87.539050	 87.560720	-176.554000	-5.236020	 78.214860	-16.289090	-5.454293	-13.055290	 27.932300	-19.473710	-2.743146	 9.379485	-1.549214	 24.363490	-62.287100	 5.070519	-0.690904	-9.399550	-2.350882	 35.473990	 5.254307
-0.081208	 6.695966	 1.254548	-90.764990	 2.708322	 1.914629	-49.264170	-10.651650	-179.179500	 19.305320	-41.844850	 6.883596	-92.544990	 73.667870	 69.278450	-2.226679	 45.246630	-0.426443	 24.006460	-7.957213	 179.168000	-6.027742	-40.883540	 1.350449	 50.245210	 83.231960	-35.072040	 2.091747	 51.829190	 0.656993	-10.473850	 4.432119	 1.224603	-15.828530	 12.829210	-11.025100	 4.408253	-30.100920	 8.124647	-91.229200	 83.958340	 178.242500	 87.569270	 63.191540	-81.847720	 0.903954	-18.532220	-48.152700	 25.134590	 2.984890	-10.032620	-11.048600	 9.529207	-23.632120	-5.213937	-0.202400	 3.566957	-1.378229	 35.397820	-2.634230	 2.213489	 6.047827	-1.978984	-2.310223	-18.006920	-8.069993	 87.552750	 87.550870	-176.569500	-2.858649	 78.341220	-18.710180	-5.163977	-13.236330	 28.478960	-19.517820	-2.909345	 9.414371	-1.697837	 24.216160	-62.611350	 5.070519	-0.690904	-9.399550	-2.350882	 35.473990	 5.254307
-0.081701	 6.728192	 1.255116	-85.176380	 3.358571	 1.907915	-50.526550	-10.663140	 179.333500	 19.824450	-42.300590	 7.299784	-89.659270	 72.975980	 66.848920	-2.277317	 41.722740	-0.322814	 19.696720	-6.473605	 179.846100	-3.286672	-38.725520	 3.009445	 53.868420	 84.104690	-40.299220	 2.059645	 53.068100	 0.706649	-10.483950	 4.188892	 1.210879	-15.512340	 13.388780	-10.674790	 7.061992	-31.748990	 9.179017	-91.229240	 83.958370	 178.242500	 94.668690	 70.760600	-87.246110	 1.401504	-18.429200	-46.922310	 20.039260	-0.608468	-6.831674	-11.031900	 8.570119	-22.844100	-5.213937	-0.202400	 3.566957	-1.378229	 35.397820	-2.634230	 6.248837	 7.847645	-6.712214	 1.889709	-21.798850	-0.509582	 87.605220	 87.512810	-176.635800	-0.349938	 78.364170	-20.880940	-4.231170	-13.274580	 29.437670	-19.298040	-3.225663	 9.547769	-0.603906	 25.857780	-62.662650	 5.070519	-0.690904	-9.399550	-2.350882	 35.473990	 5.254307
-0.082616	 6.769825	 1.255754	-79.236780	 3.812589	 2.057801	-51.577220	-10.528580	 178.055900	 20.947650	-42.985750	 8.176135	-85.393970	 71.945680	 62.965330	-2.406051	 21.458050	 0.145168	 14.116950	-5.160095	 179.085700	 0.048280	-37.384720	 4.962599	 70.989500	 86.680760	-59.034140	 2.170031	 48.297420	 0.527945	-9.143773	 4.070486	 1.000978	-13.888890	 13.131230	-9.450935	 8.735546	-32.257340	 9.339766	-91.229190	 83.958270	 178.242500	 95.256550	 78.098190	-86.749460	-0.611879	-14.965420	-44.715500	 11.667020	-4.533905	-4.289805	-10.495830	 9.038215	-21.309610	-5.213937	-0.202400	 3.566957	-1.378229	 35.397820	-2.634230	 10.155890	 9.538559	-10.108500	 6.258728	-24.768180	 6.751390	 87.727230	 87.418890	-176.799200	 4.978585	 76.968820	-24.678390	-3.014602	-13.143840	 30.447650	-17.859390	-4.263286	 9.212885	-0.786438	 25.725180	-63.328780	 5.070519	-0.690904	-9.399550	-2.350882	 35.473990	 5.254307
-0.082328	 6.809194	 1.257665	-73.345630	 4.979427	 1.718677	-48.045200	-12.646120	 175.922100	 19.373970	-44.532790	 7.281728	-86.567300	 72.992770	 65.211360	-2.368026	 31.841300	-0.075062	 10.736030	-3.161906	 178.570300	 1.640635	-33.701440	 5.435609	 147.229400	 87.291660	-135.891200	 2.316977	 38.051790	 0.226375	-7.445320	 3.865443	 0.878944	-11.867620	 11.210890	-8.538166	 10.197490	-31.725420	 9.552289	-91.229230	 83.958270	 178.242500	 52.960410	 83.582920	-45.969740	-1.779573	-11.384840	-39.246210	 4.960725	-9.011816	-2.845260	-10.009620	 8.920929	-19.512510	-5.213937	-0.202400	 3.566957	-1.378229	 35.397820	-2.634230	 13.127300	 11.004370	-12.052970	 9.659579	-26.099470	 12.566010	 87.727040	 87.418890	-176.799000	 8.489555	 74.416450	-27.100230	-1.133322	-12.481790	 31.408770	-15.674130	-5.539569	 8.898792	-0.402104	 26.436670	-64.131530	 5.070519	-0.690904	-9.399550	-2.350882	 35.473990	 5.254307
-0.077890	 6.854986	 1.259098	-67.464380	 5.864804	 2.229299	-43.531830	-14.829630	 173.158000	 17.561910	-46.923490	 6.240301	-91.978430	 73.872020	 71.842090	-2.355587	 33.717020	-0.118389	 5.353542	-1.376192	 177.103600	 3.559886	-29.238260	 5.790939	-176.911200	 87.484950	-173.366300	 2.339952	 35.528020	 0.163313	-5.982246	 4.403508	-0.446931	-9.662748	 10.094240	-6.441993	 10.134380	-31.317960	 8.092654	-91.229130	 83.958310	 178.242400	-1.371077	 78.141550	 5.984377	-1.744052	-10.242200	-35.983550	 1.844531	-12.554680	-1.972339	-10.596960	 7.522961	-20.629880	-5.213937	-0.202400	 3.566957	-1.378229	 35.397820	-2.634230	 14.786870	 11.348850	-12.592290	 11.609660	-25.817860	 16.533570	 87.726850	 87.418890	-176.798800	 9.681643	 71.231320	-25.402090	 0.962709	-12.216010	 33.685640	-13.517260	-7.228279	 8.530577	-0.793346	 25.922630	-64.360710	 5.070519	-0.690904	-9.399550	-2.350882	 35.473990	 5.254307
-0.072087	 6.887425	 1.258783	-63.976960	 6.293490	 2.302358	-39.331180	-17.020940	 172.026900	 16.499530	-48.697130	 5.611597	-94.717190	 74.371780	 75.356830	-2.386220	 28.364410	 0.001914	 1.987895	-0.456845	 176.585500	 5.680891	-26.506130	 6.246366	-162.002500	 87.175890	 169.806700	 2.378976	 29.595210	 0.026319	-4.674229	 4.671499	-0.656144	-7.995769	 10.805770	-6.888340	 10.964010	-31.353840	 8.932666	-91.229160	 83.958270	 178.242500	-12.867420	 71.092380	 16.132820	-0.991359	-10.729110	-35.926070	 1.123087	-14.314600	-1.327973	-10.795280	 6.636860	-20.722810	-5.213937	-0.202400	 3.566957	-1.378229	 35.397820	-2.634230	 15.502430	 11.992380	-12.465410	 12.519970	-26.281860	 18.484800	 87.726780	 87.419040	-176.798700	 10.162140	 69.185550	-22.782310	 1.539091	-12.924410	 36.326970	-12.986500	-8.765027	 8.067625	-1.139814	 25.332920	-63.914680	 5.070519	-0.690904	-9.399550	-2.350882	 35.473990	 5.254307
